<svg xmlns="http://www.w3.org/2000/svg" xmlns:xlink="http://www.w3.org/1999/xlink" version="1.1" width="256" height="256" viewBox="0 0 256 256" xml:space="preserve">

<defs>
</defs>
<g style="stroke: none; stroke-width: 0; stroke-dasharray: none; stroke-linecap: butt; stroke-linejoin: miter; stroke-miterlimit: 10; fill: none; fill-rule: nonzero; opacity: 1;" transform="translate(1.4065934065934016 1.4065934065934016) scale(2.81 2.81)" >
	<path d="M 57.254 46.974 l -3.246 -3.37 l -3.893 -9.728 c -0.676 -1.686 -2.199 -2.864 -3.978 -3.074 c -10.144 -1.2 -20.432 -1.199 -30.578 0 c -1.779 0.21 -3.303 1.388 -3.977 3.074 l -3.894 9.728 l -3.245 3.37 c -3.051 3.168 -4.661 7.504 -4.419 11.895 l 0.361 6.526 c 0.033 0.603 0.15 1.182 0.326 1.734 v 8.747 c 0 1.469 1.195 2.664 2.663 2.664 h 8.723 c 1.469 0 2.663 -1.195 2.663 -2.664 v -3.914 h 32.174 v 3.914 c 0 1.469 1.195 2.664 2.663 2.664 h 8.724 c 1.469 0 2.664 -1.195 2.664 -2.664 v -8.749 c 0.176 -0.551 0.292 -1.128 0.325 -1.731 l 0.361 -6.526 C 61.915 54.478 60.304 50.143 57.254 46.974 z M 55.787 55.192 c 1.375 2.685 0.742 5.756 -1.414 6.861 c -2.156 1.104 -5.019 -0.177 -6.394 -2.861 c -1.375 -2.685 -0.742 -5.756 1.414 -6.86 C 51.549 51.227 54.412 52.508 55.787 55.192 z M 12.924 34.504 c 0.554 -1.383 1.812 -2.372 3.292 -2.547 c 9.755 -1.153 19.51 -1.153 29.265 0 c 1.48 0.175 2.738 1.164 3.292 2.547 l 3.794 9.479 c -14.479 -0.769 -28.957 -0.769 -43.436 0 L 12.924 34.504 z M 41.099 59.069 c 0 0.568 -0.461 1.028 -1.028 1.028 H 21.625 c -0.568 0 -1.028 -0.461 -1.028 -1.028 c 0 -0.568 0.46 -1.028 1.028 -1.028 h 18.446 C 40.639 58.04 41.099 58.501 41.099 59.069 z M 5.909 55.192 c 1.375 -2.685 4.238 -3.966 6.394 -2.861 c 2.156 1.104 2.789 4.176 1.414 6.86 c -1.375 2.685 -4.238 3.966 -6.394 2.861 C 5.167 60.949 4.534 57.877 5.909 55.192 z M 44.526 64.895 H 17.169 c -0.568 0 -1.028 -0.461 -1.028 -1.028 c 0 -0.568 0.46 -1.028 1.028 -1.028 h 27.357 c 0.568 0 1.028 0.461 1.028 1.028 C 45.555 64.435 45.094 64.895 44.526 64.895 z" style="stroke: none; stroke-width: 1; stroke-dasharray: none; stroke-linecap: butt; stroke-linejoin: miter; stroke-miterlimit: 10; fill: rgb(0,0,0); fill-rule: nonzero; opacity: 1;" transform=" matrix(1 0 0 1 0 0) " stroke-linecap="round" />
	<path d="M 85.558 28.532 l -3.246 -3.37 l -3.893 -9.728 c -0.676 -1.686 -2.199 -2.864 -3.978 -3.074 c -10.144 -1.2 -20.432 -1.199 -30.578 0 c -1.779 0.21 -3.303 1.388 -3.977 3.074 l -3.894 9.728 l -0.788 0.818 c 3.811 0.123 7.616 0.404 11.401 0.851 c 3.233 0.381 6 2.511 7.221 5.558 l 2.885 7.21 h 11.664 c 0.568 0 1.028 0.461 1.028 1.028 c 0 0.568 -0.461 1.028 -1.028 1.028 H 57.683 l 2.453 2.545 c 0.061 0.063 0.111 0.134 0.171 0.197 h 12.525 c 0.568 0 1.028 0.461 1.028 1.028 s -0.461 1.028 -1.028 1.028 H 61.972 c 1.517 2.13 2.601 4.531 3.189 7.066 h 10.078 v 3.914 c 0 1.469 1.195 2.664 2.663 2.664 h 8.724 c 1.469 0 2.664 -1.195 2.664 -2.664 v -8.749 c 0.176 -0.551 0.292 -1.128 0.325 -1.731 l 0.361 -6.526 C 90.22 36.036 88.609 31.7 85.558 28.532 z M 37.435 25.541 l 3.794 -9.479 c 0.554 -1.383 1.812 -2.372 3.292 -2.547 c 9.755 -1.153 19.51 -1.153 29.265 0 c 1.48 0.175 2.738 1.164 3.292 2.547 l 3.794 9.479 C 66.392 24.772 51.913 24.772 37.435 25.541 z M 82.678 43.611 c -2.156 1.104 -5.019 -0.177 -6.394 -2.861 c -1.375 -2.685 -0.742 -5.756 1.414 -6.86 c 2.156 -1.104 5.019 0.177 6.394 2.861 S 84.834 42.506 82.678 43.611 z" style="stroke: none; stroke-width: 1; stroke-dasharray: none; stroke-linecap: butt; stroke-linejoin: miter; stroke-miterlimit: 10; fill: rgb(0,0,0); fill-rule: nonzero; opacity: 1;" transform=" matrix(1 0 0 1 0 0) " stroke-linecap="round" />
</g>
</svg>